<svg width="29" height="21" viewBox="0 0 29 21" fill="none" xmlns="http://www.w3.org/2000/svg">
<path d="M28.3357 0.60771C28.1439 0.415147 27.9156 0.262306 27.6642 0.158003C27.4127 0.0536998 27.143 0 26.8706 0C26.5982 0 26.3285 0.0536998 26.077 0.158003C25.8256 0.262306 25.5974 0.415147 25.4055 0.60771L10.0325 15.9341L3.57381 9.48304C3.37463 9.29148 3.13952 9.14086 2.88188 9.03977C2.62424 8.93868 2.34913 8.88911 2.07225 8.89388C1.79537 8.89865 1.52214 8.95767 1.26817 9.06757C1.0142 9.17747 0.784458 9.3361 0.592062 9.5344C0.399665 9.7327 0.248382 9.96679 0.14685 10.2233C0.0453182 10.4798 -0.00447478 10.7537 0.000315546 11.0294C0.00510587 11.3051 0.0643855 11.5771 0.174769 11.83C0.285152 12.0828 0.444478 12.3116 0.643649 12.5031L8.56745 20.3923C8.75928 20.5849 8.98751 20.7377 9.23896 20.842C9.49042 20.9463 9.76013 21 10.0325 21C10.3049 21 10.5746 20.9463 10.8261 20.842C11.0776 20.7377 11.3058 20.5849 11.4976 20.3923L28.3357 3.62779C28.5451 3.4354 28.7123 3.20191 28.8266 2.94202C28.941 2.68213 29 2.40147 29 2.11775C29 1.83402 28.941 1.55337 28.8266 1.29348C28.7123 1.03359 28.5451 0.800095 28.3357 0.60771Z" fill="#6A0058"/>
</svg>
