<svg width="45" height="45" viewBox="0 0 45 45" fill="none" xmlns="http://www.w3.org/2000/svg">
<path d="M42.0943 32.5318C41.6355 32.0431 40.0157 30.5982 37.0379 28.6865C34.0382 26.7582 31.826 25.5559 31.1914 25.2755C31.1355 25.2507 31.0739 25.2416 31.0132 25.2492C30.9525 25.2568 30.895 25.2808 30.8469 25.3186C29.8247 26.1157 28.1038 27.58 28.0116 27.6591C27.4157 28.1697 27.4157 28.1697 26.9279 28.0107C26.07 27.7294 23.4052 26.3144 21.0831 23.987C18.7611 21.6597 17.2731 18.9289 16.9918 18.072C16.831 17.5833 16.831 17.5833 17.3434 16.9874C17.4225 16.8951 18.8876 15.1742 19.6848 14.1529C19.7226 14.1049 19.7466 14.0474 19.7542 13.9867C19.7618 13.926 19.7527 13.8643 19.7279 13.8084C19.4475 13.173 18.2451 10.9616 16.3168 7.96193C14.4026 4.98508 12.9594 3.36525 12.4707 2.90646C12.4259 2.86415 12.3705 2.83471 12.3103 2.82125C12.2501 2.80779 12.1874 2.81082 12.1288 2.83C10.4207 3.41703 8.77255 4.16605 7.20696 5.06682C5.69562 5.94539 4.26477 6.95566 2.93109 8.08586C2.88453 8.12544 2.84963 8.17694 2.83012 8.23485C2.81061 8.29276 2.80723 8.35489 2.82034 8.41457C3.00404 9.27062 3.88206 12.8443 6.60667 17.7943C9.38665 22.8462 11.3132 25.4346 15.3957 29.503C19.4783 33.5715 22.1484 35.6141 27.2056 38.3941C32.1556 41.1187 35.731 41.9976 36.5853 42.1795C36.6451 42.1925 36.7073 42.1891 36.7653 42.1696C36.8234 42.1501 36.875 42.1152 36.9149 42.0688C38.0449 40.7351 39.0549 39.3043 39.933 37.7929C40.8337 36.2272 41.5827 34.5791 42.1698 32.871C42.1886 32.8129 42.1915 32.7507 42.1782 32.6911C42.165 32.6314 42.136 32.5764 42.0943 32.5318Z" fill="white"/>
</svg>
