<svg width="25" height="25" viewBox="0 0 25 25" fill="none" xmlns="http://www.w3.org/2000/svg">
<path d="M24.9415 18.8694C24.6502 18.5591 23.6217 17.6417 21.731 16.428C19.8264 15.2036 18.4218 14.4402 18.0189 14.2622C17.9833 14.2464 17.9442 14.2407 17.9057 14.2455C17.8671 14.2503 17.8306 14.2655 17.8001 14.2895C17.1511 14.7957 16.0584 15.7254 15.9998 15.7756C15.6215 16.0998 15.6215 16.0998 15.3117 15.9988C14.7671 15.8203 13.0751 14.9218 11.6007 13.4441C10.1263 11.9664 9.18156 10.2325 9.00299 9.68844C8.90086 9.37817 8.90086 9.37817 9.22621 8.99981C9.27643 8.94122 10.2067 7.84856 10.7129 7.20011C10.7369 7.16958 10.7521 7.13307 10.7569 7.09453C10.7617 7.05599 10.7559 7.01686 10.7402 6.98136C10.5622 6.57789 9.79877 5.17385 8.5744 3.26923C7.35897 1.37913 6.44265 0.350651 6.13237 0.0593508C6.1039 0.0324825 6.06871 0.0137914 6.03051 0.00524701C5.9923 -0.00329739 5.9525 -0.00137867 5.91529 0.0108008C4.83071 0.383527 3.78426 0.859101 2.79021 1.43103C1.8306 1.98887 0.922102 2.63032 0.0752948 3.34792C0.0457348 3.37305 0.0235729 3.40575 0.0111857 3.44252C-0.0012014 3.47929 -0.00334644 3.51873 0.00498052 3.55663C0.121613 4.10016 0.679105 6.36918 2.40906 9.5121C4.17418 12.7197 5.39742 14.3632 7.98957 16.9464C10.5817 19.5296 12.2771 20.8265 15.4881 22.5916C18.631 24.3215 20.9012 24.8796 21.4436 24.9951C21.4816 25.0033 21.5211 25.0012 21.5579 24.9888C21.5948 24.9764 21.6276 24.9543 21.6529 24.9248C22.3704 24.078 23.0116 23.1695 23.5692 22.2099C24.1411 21.2158 24.6166 20.1694 24.9895 19.0848C25.0014 19.0479 25.0032 19.0085 24.9948 18.9706C24.9864 18.9327 24.9679 18.8978 24.9415 18.8694Z" fill="#9A0180"/>
</svg>
